<?xml version="1.0" standalone="no"?>
<!DOCTYPE svg PUBLIC "-//W3C//DTD SVG 20010904//EN"
 "http://www.w3.org/TR/2001/REC-SVG-20010904/DTD/svg10.dtd">
<svg version="1.0" xmlns="http://www.w3.org/2000/svg"
 width="189.000000pt" height="203.000000pt" viewBox="0 0 189.000000 203.000000"
 preserveAspectRatio="xMidYMid meet">

<g transform="translate(0.000000,203.000000) scale(0.100000,-0.100000)"
fill="#000000" stroke="none">
<path d="M1254 1460 c-27 -11 -68 -64 -83 -109 -17 -53 -13 -150 9 -198 46
-102 165 -111 216 -16 37 68 48 125 35 194 -12 69 -36 103 -88 125 -36 16 -58
17 -89 4z"/>
<path d="M502 1435 c-67 -56 -85 -194 -38 -289 31 -63 75 -97 132 -104 39 -4
47 -1 78 30 43 43 60 102 54 190 -6 75 -39 143 -87 177 -41 30 -101 28 -139
-4z"/>
<path d="M800 660 c-25 -25 -26 -72 -1 -126 22 -48 59 -80 112 -95 49 -15 111
6 158 55 53 55 54 146 1 146 -10 0 -44 -14 -75 -30 l-58 -30 -15 22 c-28 40
-70 78 -86 78 -9 0 -25 -9 -36 -20z"/>
</g>
</svg>
